<svg width="152" height="43" viewBox="0 0 152 43" fill="none" xmlns="http://www.w3.org/2000/svg">
<path fill-rule="evenodd" clip-rule="evenodd" d="M152 42.8286H108.571V0.828613H152V42.8286ZM136.244 33.418C137.574 33.103 138.754 32.683 139.759 32.1317V27.6299C137.628 28.903 135.294 29.5461 132.756 29.5461C131.1 29.5461 129.689 29.2442 128.535 28.6405C127.368 28.0367 126.486 27.1574 125.875 26.0024C125.264 24.8474 124.966 23.443 124.966 21.8024C124.966 20.1617 125.278 18.7705 125.916 17.6286C126.554 16.4867 127.449 15.6074 128.644 15.0036C129.824 14.3999 131.263 14.098 132.932 14.098C134.154 14.098 135.307 14.2555 136.42 14.5705C137.519 14.8855 138.551 15.3449 139.487 15.9486V11.3549C138.456 10.843 137.329 10.4492 136.121 10.1736C134.914 9.89799 133.638 9.76674 132.281 9.76674C130.326 9.76674 128.562 10.0424 126.988 10.6067C125.414 11.1711 124.056 11.9717 122.93 13.0349C121.804 14.098 120.935 15.358 120.338 16.8411C119.741 18.3242 119.442 19.978 119.442 21.8155C119.442 23.653 119.727 25.3855 120.311 26.8817C120.881 28.378 121.709 29.6511 122.794 30.688C123.88 31.7249 125.196 32.5124 126.757 33.0636C128.318 33.6149 130.082 33.8905 132.036 33.8905C133.502 33.8905 134.914 33.733 136.244 33.418ZM21.5514 23.4299H17.1679V29.8086H21.4836C22.9629 29.8086 24.1029 29.533 24.9036 28.9949C25.7043 28.4567 26.0979 27.6824 26.0979 26.6717C26.0979 24.5192 24.5779 23.4299 21.5514 23.4299ZM20.9136 13.8486C23.5464 13.8486 24.8629 14.7805 24.8629 16.6574C24.8629 17.6286 24.5236 18.3767 23.845 18.928C23.1664 19.4661 22.1893 19.7417 20.9 19.7417H17.1407V13.8617H20.9L20.9136 13.8486ZM75.1993 13.8486C77.8321 13.8486 79.1486 14.7805 79.1486 16.6574C79.1486 17.6286 78.8093 18.3767 78.1307 18.928C77.4521 19.4661 76.475 19.7417 75.1857 19.7417H71.4264V13.8617H75.1857L75.1993 13.8486ZM75.8236 23.4299H71.44V29.8086H75.7557C77.235 29.8086 78.375 29.533 79.1757 28.9949C79.9764 28.4567 80.37 27.6824 80.37 26.6717C80.37 24.5192 78.85 23.4299 75.8236 23.4299ZM54.2721 42.8286H97.7007V0.828613H54.2721V42.8286ZM66.5 10.0161H75.6743C78.375 10.0161 80.465 10.5411 81.9579 11.5911C83.4371 12.6411 84.1836 14.1374 84.1836 16.1061C84.1836 17.2349 83.9121 18.2061 83.3829 19.033C82.8536 19.8599 82.0664 20.5161 81.0214 21.0017C82.46 21.4611 83.5593 22.1961 84.3329 23.1936C85.0928 24.1911 85.4729 25.4117 85.4729 26.8424C85.4729 28.273 85.1064 29.4674 84.36 30.478C83.6136 31.4886 82.555 32.2761 81.1843 32.8274C79.8136 33.3786 78.1579 33.6542 76.2307 33.6542H66.5V10.0161ZM0 42.8286H43.4286V0.828613H0V42.8286ZM12.2143 10.0161H21.3886C24.0893 10.0161 26.1793 10.5411 27.6721 11.5911C29.1514 12.6411 29.8979 14.1374 29.8979 16.1061C29.8979 17.2349 29.6264 18.2061 29.0971 19.033C28.5679 19.8599 27.7807 20.5161 26.7357 21.0017C28.1743 21.4611 29.2736 22.1961 30.0471 23.1936C30.8071 24.1911 31.1871 25.4117 31.1871 26.8424C31.1871 28.273 30.8207 29.4674 30.0743 30.478C29.3279 31.4886 28.2693 32.2761 26.8986 32.8274C25.5279 33.3786 23.8721 33.6542 21.945 33.6542H12.2143V10.0161Z" fill="black"/>
</svg>
