<svg width="365" height="225" viewBox="0 0 365 225" fill="none" xmlns="http://www.w3.org/2000/svg">
<path d="M110.319 119.268C111.426 116.469 111.98 112.014 111.98 105.902H117.963V119.268H110.319Z" fill="#498268"/>
<path d="M252.52 112.572C252.52 114.85 253.046 116.579 254.098 117.759C255.15 118.93 256.486 119.515 258.105 119.515C259.724 119.515 261.051 118.934 262.085 117.773C263.128 116.602 263.649 114.85 263.649 112.517C263.649 110.211 263.141 108.491 262.126 107.357C261.12 106.222 259.779 105.655 258.105 105.655C256.431 105.655 255.081 106.231 254.057 107.384C253.032 108.528 252.52 110.257 252.52 112.572Z" fill="#498268"/>
<path fill-rule="evenodd" clip-rule="evenodd" d="M86.4942 224.945L192.618 162.812V224.945L364.394 112.527L192.618 0.107788V62.2409L86.4942 0.107788V85.9958H0.606201V139.057H86.4942V224.945ZM246.372 116.496L242.433 115.248C242.095 116.72 241.537 117.8 240.759 118.486C239.982 119.172 239.053 119.515 237.973 119.515C236.51 119.515 235.32 118.976 234.405 117.896C233.491 116.816 233.033 115.005 233.033 112.462C233.033 110.065 233.495 108.331 234.419 107.261C235.352 106.19 236.565 105.655 238.056 105.655C239.135 105.655 240.05 105.957 240.8 106.561C241.56 107.165 242.058 107.988 242.296 109.031L246.317 108.07C245.86 106.46 245.173 105.225 244.259 104.365C242.722 102.911 240.723 102.183 238.262 102.183C235.444 102.183 233.17 103.112 231.441 104.969C229.712 106.817 228.848 109.415 228.848 112.764C228.848 115.929 229.708 118.427 231.428 120.256C233.148 122.077 235.343 122.987 238.015 122.987C240.174 122.987 241.953 122.457 243.353 121.395C244.762 120.325 245.768 118.692 246.372 116.496ZM206.616 102.526H192.523V114.012L192.537 117.471C192.537 118.367 192.39 118.93 192.097 119.159C191.805 119.387 191.233 119.502 190.382 119.502L189.476 119.488V122.63C190.73 122.722 191.594 122.768 192.07 122.768C193.424 122.768 194.417 122.498 195.048 121.958C195.688 121.409 196.091 120.65 196.256 119.68C196.42 118.701 196.503 116.981 196.503 114.52V105.93H202.554V122.644H206.616V102.526ZM90.1466 102.526H86.3454V122.644H90.4074L98.5451 109.511V122.644H102.346V102.526H98.2981L90.1466 115.92V102.526ZM122.011 102.526H108.11V104.653C108.11 108.13 107.977 111.007 107.712 113.285C107.447 115.554 106.898 117.549 106.065 119.268H104.364V127.036H107.74V122.644H120.406V127.036H123.782V119.268H122.011V102.526ZM126.581 102.526H130.382V115.92L138.534 102.526H142.582V122.644H138.781V109.511L130.643 122.644H126.581V102.526ZM151.255 105.93V122.644H155.317V105.93H161.273V102.526H145.286V105.93H151.255ZM163.908 122.644V102.526H178.825V105.93H167.97V110.39H178.07V113.779H167.97V119.255H179.209V122.644H163.908ZM210.816 122.644V102.526H225.733V105.93H214.878V110.39H224.978V113.779H214.878V119.255H226.117V122.644H210.816ZM248.334 112.709C248.334 110.659 248.641 108.939 249.254 107.549C249.711 106.524 250.333 105.605 251.12 104.791C251.916 103.976 252.785 103.373 253.727 102.979C254.981 102.449 256.426 102.183 258.064 102.183C261.028 102.183 263.398 103.103 265.172 104.942C266.956 106.78 267.848 109.337 267.848 112.613C267.848 115.86 266.966 118.404 265.2 120.243C263.434 122.072 261.074 122.987 258.119 122.987C255.127 122.987 252.749 122.077 250.983 120.256C249.217 118.427 248.334 115.911 248.334 112.709ZM270.977 102.526V122.644H274.751V106.808L278.731 122.644H282.642L286.635 106.808V122.644H290.409V102.526H284.316L280.707 116.249L277.057 102.526H270.977Z" fill="#498268"/>
</svg>
