<svg width="809" height="500" viewBox="0 0 809 500" fill="none" xmlns="http://www.w3.org/2000/svg">
<rect y="191" width="338" height="118" fill="#498268"/>
<path d="M618 250L191 500L191 0L618 250Z" fill="#498268"/>
<path d="M809 250L427 500L427 0L809 250Z" fill="#498268"/>
<path d="M207.828 254.405V248.498H223.088V262.466C221.605 263.901 219.452 265.168 216.63 266.268C213.824 267.353 210.977 267.895 208.091 267.895C204.424 267.895 201.227 267.129 198.501 265.599C195.774 264.052 193.725 261.852 192.354 258.998C190.983 256.127 190.297 253.01 190.297 249.646C190.297 245.994 191.062 242.75 192.593 239.911C194.124 237.073 196.364 234.897 199.314 233.382C201.562 232.218 204.36 231.636 207.709 231.636C212.062 231.636 215.458 232.553 217.898 234.386C220.353 236.204 221.932 238.724 222.633 241.944L215.602 243.26C215.107 241.538 214.174 240.182 212.803 239.194C211.448 238.189 209.75 237.687 207.709 237.687C204.615 237.687 202.152 238.668 200.318 240.629C198.501 242.59 197.592 245.5 197.592 249.359C197.592 253.52 198.517 256.646 200.366 258.734C202.216 260.807 204.639 261.844 207.637 261.844C209.12 261.844 210.603 261.557 212.086 260.983C213.584 260.393 214.868 259.683 215.936 258.854V254.405H207.828Z" fill="white"/>
<path d="M228.206 249.981C228.206 246.409 228.74 243.411 229.808 240.988C230.606 239.202 231.69 237.599 233.061 236.18C234.448 234.761 235.963 233.709 237.606 233.023C239.79 232.098 242.309 231.636 245.163 231.636C250.33 231.636 254.459 233.238 257.553 236.443C260.662 239.648 262.217 244.105 262.217 249.813C262.217 255.474 260.678 259.906 257.601 263.111C254.523 266.3 250.409 267.895 245.259 267.895C240.045 267.895 235.899 266.308 232.822 263.135C229.745 259.946 228.206 255.561 228.206 249.981ZM235.501 249.741C235.501 253.712 236.418 256.725 238.251 258.782C240.085 260.823 242.413 261.844 245.235 261.844C248.058 261.844 250.37 260.831 252.171 258.806C253.989 256.765 254.898 253.712 254.898 249.646C254.898 245.628 254.013 242.63 252.243 240.653C250.489 238.676 248.153 237.687 245.235 237.687C242.317 237.687 239.965 238.692 238.18 240.701C236.394 242.694 235.501 245.707 235.501 249.741Z" fill="white"/>
<path d="M281.422 232.234H295.438C298.212 232.234 300.277 232.354 301.633 232.593C303.004 232.816 304.224 233.294 305.292 234.028C306.376 234.761 307.277 235.742 307.995 236.97C308.712 238.181 309.071 239.545 309.071 241.059C309.071 242.702 308.624 244.209 307.732 245.58C306.855 246.951 305.659 247.98 304.144 248.665C306.281 249.287 307.923 250.347 309.071 251.846C310.219 253.345 310.793 255.107 310.793 257.132C310.793 258.726 310.418 260.281 309.669 261.796C308.935 263.295 307.923 264.499 306.631 265.407C305.356 266.3 303.777 266.85 301.896 267.058C300.716 267.185 297.87 267.265 293.357 267.297H281.422V232.234ZM288.502 238.07V246.178H293.142C295.9 246.178 297.614 246.138 298.284 246.058C299.496 245.915 300.445 245.5 301.13 244.814C301.832 244.113 302.183 243.196 302.183 242.064C302.183 240.98 301.88 240.103 301.274 239.433C300.684 238.747 299.799 238.333 298.619 238.189C297.917 238.11 295.9 238.07 292.568 238.07H288.502ZM288.502 252.014V261.389H295.055C297.606 261.389 299.225 261.318 299.911 261.174C300.963 260.983 301.816 260.52 302.47 259.787C303.139 259.037 303.474 258.041 303.474 256.797C303.474 255.745 303.219 254.852 302.709 254.118C302.199 253.385 301.457 252.851 300.485 252.516C299.528 252.181 297.439 252.014 294.218 252.014H288.502Z" fill="white"/>
<path d="M326.004 267.297V252.54L313.161 232.234H321.46L329.712 246.106L337.796 232.234H345.952L333.06 252.588V267.297H326.004Z" fill="white"/>
<path d="M370.084 267.297V238.165H359.68V232.234H387.544V238.165H377.164V267.297H370.084Z" fill="white"/>
<path d="M392.16 267.297V232.234H399.24V246.034H413.112V232.234H420.191V267.297H413.112V251.966H399.24V267.297H392.16Z" fill="white"/>
<path d="M427.534 267.297V232.234H453.532V238.165H434.614V245.939H452.217V251.846H434.614V261.389H454.202V267.297H427.534Z" fill="white"/>
<path d="M473.886 267.297V232.234H497.923V238.165H480.966V246.465H495.603V252.396H480.966V267.297H473.886Z" fill="white"/>
<path d="M502.348 249.981C502.348 246.409 502.882 243.411 503.95 240.988C504.747 239.202 505.832 237.599 507.203 236.18C508.59 234.761 510.105 233.709 511.747 233.023C513.932 232.098 516.451 231.636 519.305 231.636C524.471 231.636 528.601 233.238 531.694 236.443C534.804 239.648 536.358 244.105 536.358 249.813C536.358 255.474 534.82 259.906 531.742 263.111C528.665 266.3 524.551 267.895 519.401 267.895C514.187 267.895 510.041 266.308 506.964 263.135C503.886 259.946 502.348 255.561 502.348 249.981ZM509.643 249.741C509.643 253.712 510.559 256.725 512.393 258.782C514.227 260.823 516.555 261.844 519.377 261.844C522.199 261.844 524.511 260.831 526.313 258.806C528.131 256.765 529.04 253.712 529.04 249.646C529.04 245.628 528.155 242.63 526.385 240.653C524.631 238.676 522.295 237.687 519.377 237.687C516.459 237.687 514.107 238.692 512.321 240.701C510.536 242.694 509.643 245.707 509.643 249.741Z" fill="white"/>
<path d="M541.931 267.297V232.234H556.832C560.579 232.234 563.297 232.553 564.988 233.191C566.694 233.812 568.057 234.929 569.077 236.539C570.098 238.15 570.608 239.991 570.608 242.064C570.608 244.695 569.835 246.871 568.288 248.593C566.742 250.3 564.43 251.376 561.352 251.822C562.883 252.715 564.142 253.696 565.131 254.764C566.136 255.832 567.483 257.73 569.173 260.457L573.454 267.297H564.988L559.869 259.667C558.052 256.941 556.808 255.227 556.138 254.525C555.468 253.807 554.759 253.321 554.009 253.066C553.26 252.795 552.072 252.659 550.446 252.659H549.011V267.297H541.931ZM549.011 247.063H554.249C557.645 247.063 559.766 246.919 560.611 246.632C561.456 246.345 562.117 245.851 562.596 245.149C563.074 244.448 563.313 243.571 563.313 242.518C563.313 241.338 562.994 240.39 562.357 239.672C561.735 238.939 560.85 238.476 559.702 238.285C559.128 238.205 557.406 238.165 554.536 238.165H549.011V247.063Z" fill="white"/>
<path d="M577.305 267.297V232.234H603.303V238.165H584.385V245.939H601.988V251.846H584.385V261.389H603.973V267.297H577.305Z" fill="white"/>
<path d="M608.182 255.888L615.071 255.219C615.485 257.531 616.322 259.229 617.582 260.313C618.858 261.397 620.572 261.939 622.724 261.939C625.004 261.939 626.719 261.461 627.867 260.504C629.031 259.532 629.613 258.4 629.613 257.108C629.613 256.279 629.365 255.577 628.871 255.003C628.393 254.413 627.548 253.903 626.336 253.473C625.507 253.186 623.617 252.675 620.667 251.942C616.872 251.001 614.21 249.845 612.679 248.474C610.526 246.545 609.45 244.193 609.45 241.418C609.45 239.632 609.952 237.966 610.957 236.419C611.977 234.857 613.436 233.669 615.334 232.856C617.247 232.043 619.551 231.636 622.246 231.636C626.647 231.636 629.955 232.601 632.172 234.53C634.404 236.459 635.576 239.034 635.688 242.255L628.608 242.566C628.305 240.764 627.651 239.473 626.647 238.692C625.658 237.894 624.167 237.496 622.174 237.496C620.117 237.496 618.507 237.918 617.343 238.763C616.593 239.306 616.219 240.031 616.219 240.94C616.219 241.769 616.57 242.479 617.271 243.069C618.164 243.818 620.333 244.599 623.777 245.412C627.221 246.226 629.764 247.071 631.406 247.948C633.065 248.809 634.356 249.997 635.281 251.511C636.222 253.01 636.692 254.868 636.692 257.084C636.692 259.093 636.134 260.975 635.018 262.729C633.902 264.483 632.323 265.79 630.282 266.651C628.241 267.496 625.698 267.919 622.653 267.919C618.22 267.919 614.816 266.898 612.44 264.857C610.064 262.8 608.645 259.811 608.182 255.888Z" fill="white"/>
<path d="M650.54 267.297V238.165H640.136V232.234H668V238.165H657.62V267.297H650.54Z" fill="white"/>
</svg>
