<svg width="178" height="58" viewBox="0 0 178 58" fill="none" xmlns="http://www.w3.org/2000/svg">
<path d="M8.01925 30.5403L0.697436 34.8351C0.164195 35.1426 -0.0921714 35.7473 0.0411389 36.3623L0.235977 37.1311C1.52806 41.6001 4.26605 45.9768 7.43473 49.1441C12.3775 54.0743 19.2071 57.5491 27.821 57.5286C35.4196 57.5183 42.8132 54.4946 48.1867 49.1441C51.3553 45.9768 53.7549 42.1023 55.1496 37.8691C55.2316 37.6231 55.3136 37.3873 55.3854 37.1413L55.5803 36.3726C55.7341 35.7781 55.4572 35.1528 54.924 34.8453L47.6021 30.5506C47.2022 30.3251 46.7305 30.2943 46.3203 30.4993C46.1255 30.5813 45.8486 30.8478 45.7973 31.2066C45.7461 31.5346 45.6435 32.1598 45.5717 32.5493C45.3461 33.6666 45.1 34.5891 44.3617 36.2701C41.716 42.3586 35.194 46.9711 27.8107 46.9711C19.0532 46.9711 11.6699 40.7801 9.98814 32.5391C9.87534 32.0163 9.83432 31.7293 9.74203 31.1963C9.67024 30.7658 9.50617 30.5813 9.31133 30.4891C8.88064 30.2841 8.40892 30.3148 8.01925 30.5403Z" fill="black"/>
<path d="M8.01925 27.1168L0.697436 22.822C0.164195 22.5145 -0.0921714 21.9098 0.0411389 21.2948L0.235977 20.526C1.52806 16.057 4.26605 11.6803 7.43473 8.51301C12.3775 3.58276 19.2071 0.108008 27.821 0.128508C35.4196 0.138758 42.8132 3.16251 48.1867 8.51301C51.3553 11.6803 53.7549 15.5548 55.1496 19.788C55.2316 20.034 55.3136 20.2698 55.3854 20.5158L55.5803 21.2845C55.7341 21.879 55.4572 22.5043 54.924 22.8118L47.6021 27.1065C47.2022 27.332 46.7305 27.3628 46.3203 27.1578C46.1255 27.0758 45.8486 26.8093 45.7973 26.4505C45.7461 26.1225 45.6435 25.4973 45.5717 25.1078C45.3461 23.9905 45.1 23.068 44.3617 21.387C41.716 15.2985 35.194 10.686 27.8107 10.686C19.0532 10.686 11.6699 16.877 9.98814 25.118C9.87534 25.6408 9.83432 25.9278 9.74203 26.4608C9.67024 26.8913 9.50617 27.0758 9.31133 27.168C8.88064 27.373 8.40892 27.3423 8.01925 27.1168Z" fill="black"/>
<path d="M18.684 16.344C18.52 16.5695 18.5815 16.8565 18.9507 17.369L27.0416 27.9675C27.2979 28.3057 27.5338 28.562 27.5646 28.849C27.5338 29.1257 27.2979 29.382 27.0416 29.7305L18.9507 40.329C18.6635 40.7287 18.52 41.1285 18.684 41.3437C18.8994 41.6512 19.4531 41.3745 19.8121 41.1797L39.5522 29.7407L40.3726 29.2385C40.8135 28.9412 40.8135 28.7465 40.3726 28.4697L39.5522 27.9675L19.8121 16.508C19.4326 16.2825 18.8891 16.0365 18.684 16.344Z" fill="black"/>
<path d="M61.0767 10.6963V27.496H65.5784V20.8745H69.1266V27.496H73.6283V10.6963H69.1266V17.0513H65.5784V10.6963H61.0767Z" fill="black"/>
<path d="M81.709 22.1455C81.709 22.2788 81.6988 22.412 81.6885 22.535C81.6783 22.6683 81.6475 22.7913 81.6167 22.9143C81.4527 23.396 81.1963 23.7343 80.8682 23.97C80.5298 24.1853 80.1811 24.3083 79.8222 24.3083C79.5863 24.3083 79.3505 24.2365 79.1146 24.093C78.8788 23.9495 78.6839 23.7138 78.5198 23.3858C78.3558 23.0578 78.2635 22.6273 78.2635 22.084C78.2737 21.5203 78.3865 21.059 78.5916 20.7003C78.807 20.3415 79.0941 20.0648 79.4428 19.8598C79.7914 19.665 80.1606 19.5215 80.5605 19.4395C80.9604 19.3678 81.3399 19.3268 81.7193 19.3063V22.1455H81.709ZM86.2313 27.2295C86.1288 26.6658 86.057 26.0815 86.016 25.4358C85.975 24.8003 85.9647 24.1545 85.9647 23.4985V17.451C85.975 16.6208 85.9032 15.811 85.7596 15.0218C85.6263 14.2223 85.3494 13.4945 84.9495 12.8488C84.5496 12.203 83.9651 11.6905 83.2062 11.301C82.4474 10.9115 81.4424 10.7065 80.2119 10.7065C79.453 10.7168 78.7557 10.7783 78.0994 10.9115C77.4534 11.0345 76.8689 11.1883 76.3664 11.383C75.8639 11.5675 75.464 11.752 75.1563 11.9365L75.9562 14.8578C76.4279 14.5503 76.9509 14.335 77.4944 14.1608C78.0481 14.007 78.6326 13.925 79.2787 13.925C80.0375 13.9353 80.622 14.1403 81.0015 14.5503C81.3809 14.95 81.5757 15.483 81.5757 16.1288V16.4978C80.6426 16.4978 79.7299 16.6208 78.848 16.8668C77.9661 17.0923 77.1765 17.451 76.4587 17.943C75.7408 18.4145 75.1871 19.0398 74.7667 19.8085C74.3462 20.567 74.1309 21.4793 74.1206 22.5453C74.1309 23.519 74.3154 24.3698 74.6846 25.118C75.0538 25.856 75.5665 26.4403 76.2023 26.8605C76.8483 27.2808 77.5764 27.496 78.407 27.5063C79.1351 27.5063 79.7914 27.3525 80.4067 27.0553C81.022 26.7375 81.5552 26.2763 82.0064 25.6408H82.0679L82.3038 27.2398H86.2313V27.2295Z" fill="black"/>
<path d="M127.404 18.189C127.291 18.1993 127.188 18.2095 127.096 18.2198C127.004 18.2198 126.881 18.23 126.758 18.23C126.214 18.2198 125.732 18.1173 125.322 17.902C124.891 17.6868 124.553 17.3895 124.307 17.0103C124.061 16.6413 123.938 16.2005 123.938 15.7085C123.948 14.9603 124.173 14.3863 124.625 14.007C125.066 13.6278 125.691 13.4433 126.46 13.433C126.635 13.433 126.799 13.4433 126.942 13.4638C127.106 13.474 127.26 13.5048 127.414 13.5355V18.189H127.404ZM131.659 10.932C131.106 10.8295 130.419 10.7578 129.608 10.7065C128.798 10.6553 127.927 10.6348 126.994 10.6348C126.224 10.6348 125.486 10.6758 124.779 10.768C124.071 10.85 123.425 10.9935 122.84 11.1678C122.256 11.342 121.784 11.5675 121.405 11.8238C120.779 12.244 120.308 12.7463 119.969 13.3305C119.641 13.9045 119.467 14.6118 119.456 15.442C119.467 16.2313 119.651 16.9078 120 17.4613C120.359 18.025 120.83 18.4658 121.415 18.804C122 19.1423 122.646 19.3883 123.343 19.5318V19.5933C122.892 19.7265 122.492 19.9008 122.164 20.0955C121.825 20.3005 121.559 20.5055 121.333 20.7515C120.974 21.1615 120.677 21.6433 120.42 22.207C120.164 22.781 119.959 23.355 119.785 23.9495C119.62 24.544 119.467 25.0873 119.323 25.5895C119.221 25.9483 119.097 26.2865 118.954 26.594C118.81 26.8913 118.646 27.1783 118.482 27.4345H123.117C123.22 27.25 123.312 27.045 123.394 26.84C123.476 26.635 123.548 26.4198 123.589 26.2045C123.753 25.528 123.927 24.8618 124.091 24.1853C124.266 23.5088 124.481 22.9143 124.727 22.3813C124.994 21.8585 125.322 21.4588 125.732 21.2128C125.886 21.1205 126.06 21.0488 126.255 20.977C126.45 20.9053 126.686 20.8745 126.953 20.8745H127.363V27.4243H131.659V10.932Z" fill="black"/>
<path d="M132.746 10.6963V27.3628H150.046L150.261 31.9548H153.625L153.799 24.1545L152.23 24.0828V10.6963H147.872V23.7138H144.703V10.6963H140.314V23.7138H137.135V10.6963H132.746Z" fill="black"/>
<path d="M157.388 17.492C157.388 17.082 157.44 16.6412 157.511 16.2107C157.593 15.7802 157.706 15.3702 157.88 14.991C158.034 14.622 158.25 14.3247 158.506 14.089C158.762 13.8635 159.07 13.7405 159.429 13.7405C159.86 13.7507 160.219 13.9147 160.485 14.2427C160.762 14.5707 160.957 15.0217 161.08 15.5752C161.203 16.139 161.275 16.7745 161.264 17.4817H157.388V17.492ZM165.089 20.567C165.141 20.3415 165.172 20.0545 165.192 19.6957C165.213 19.337 165.223 18.8757 165.223 18.2915C165.213 15.811 164.731 13.9045 163.767 12.5822C162.803 11.26 161.449 10.5835 159.685 10.5732C158.434 10.5732 157.316 10.932 156.342 11.629C155.358 12.3157 154.578 13.3202 154.014 14.622C153.44 15.9237 153.153 17.492 153.133 19.3267C153.133 21.0385 153.399 22.494 153.922 23.6932C154.455 24.8822 155.225 25.8047 156.26 26.4402C157.275 27.0655 158.537 27.3832 160.013 27.3832C160.865 27.3832 161.685 27.3217 162.475 27.1885C163.264 27.0552 163.951 26.8707 164.525 26.6555L163.92 23.519C163.531 23.6522 163.08 23.7752 162.546 23.888C162.013 23.9905 161.439 24.052 160.813 24.052C160.167 24.052 159.583 23.9392 159.07 23.7035C158.547 23.478 158.147 23.1192 157.839 22.5965C157.542 22.084 157.368 21.4075 157.347 20.567H165.089V20.567Z" fill="black"/>
<path d="M170.155 17.492C170.155 17.082 170.207 16.6412 170.278 16.2107C170.36 15.7802 170.483 15.3702 170.637 15.0012C170.801 14.6322 171.006 14.3247 171.273 14.0992C171.519 13.8737 171.827 13.761 172.186 13.7507C172.616 13.761 172.975 13.925 173.242 14.253C173.519 14.5912 173.714 15.032 173.837 15.5855C173.96 16.1492 174.021 16.7847 174.021 17.492H170.155ZM177.867 20.567C177.918 20.3415 177.949 20.0545 177.98 19.6957C178 19.3472 178.01 18.8757 178.01 18.2915C178 15.811 177.508 13.9045 176.554 12.5822C175.59 11.26 174.226 10.5937 172.463 10.5732C171.212 10.5835 170.094 10.932 169.12 11.629C168.145 12.3157 167.366 13.3202 166.792 14.622C166.218 15.9237 165.93 17.492 165.92 19.3267C165.92 21.0385 166.187 22.4837 166.72 23.6932C167.243 24.8822 168.022 25.8047 169.048 26.43C170.063 27.0552 171.314 27.373 172.801 27.3832C173.652 27.373 174.473 27.3115 175.252 27.1885C176.041 27.0552 176.729 26.8707 177.313 26.6555L176.708 23.519C176.318 23.6522 175.867 23.7855 175.334 23.888C174.801 24.0007 174.226 24.052 173.611 24.052C172.955 24.052 172.37 23.9392 171.868 23.7035C171.355 23.478 170.945 23.1192 170.637 22.5965C170.33 22.0942 170.166 21.4075 170.145 20.567H177.867V20.567Z" fill="black"/>
<path d="M65.2913 39.9394H66.327C66.9013 39.9394 67.4345 40.0112 67.896 40.1649C68.3677 40.3187 68.7369 40.5544 69.0137 40.8824C69.2906 41.2104 69.4342 41.6204 69.4444 42.1329C69.4342 42.6659 69.2906 43.0862 68.9932 43.4039C68.7061 43.7114 68.3267 43.9369 67.8755 44.0702C67.414 44.2034 66.9218 44.2649 66.3988 44.2649C66.204 44.2649 66.0194 44.2649 65.8246 44.2444C65.6297 44.2239 65.4554 44.2034 65.3016 44.1727V39.9394H65.2913ZM65.3221 33.2667C65.6605 33.1949 66.0296 33.1539 66.4296 33.1539C67.2192 33.1539 67.8447 33.3179 68.3062 33.6357C68.7574 33.9534 68.9932 34.4249 69.0137 35.0604C69.0035 35.5114 68.8804 35.8907 68.6446 36.1879C68.3985 36.4852 68.0806 36.7107 67.6704 36.8747C67.2602 37.0284 66.8193 37.1104 66.3373 37.1104H65.3221V33.2667ZM61.1279 46.9402C61.6099 46.9914 62.1944 47.0324 62.902 47.0734C63.6096 47.1144 64.3479 47.1247 65.1272 47.1247C65.804 47.1247 66.5321 47.1042 67.3115 47.0222C68.0908 46.9504 68.8599 46.8172 69.629 46.6122C70.3776 46.4277 71.0749 46.1407 71.7005 45.7717C72.326 45.4027 72.8285 44.9209 73.1976 44.3264C73.5771 43.7319 73.7719 43.0042 73.7821 42.1432C73.7821 41.4872 73.6283 40.9029 73.3309 40.3699C73.0336 39.8267 72.6029 39.3859 72.0286 39.0169C71.4543 38.6582 70.757 38.4019 69.9469 38.2687V38.1969C70.5109 38.0637 71.0237 37.8279 71.4954 37.5102C71.9671 37.1719 72.3465 36.7517 72.6439 36.2392C72.931 35.7164 73.0746 35.1117 73.0746 34.4249C73.0746 33.6972 72.9105 33.0822 72.6029 32.5799C72.2952 32.0879 71.885 31.6882 71.3621 31.3909C70.8391 31.0937 70.2751 30.8682 69.6393 30.7042C69.0137 30.5504 68.3574 30.4479 67.7114 30.3967C67.0654 30.3352 66.4398 30.3147 65.8656 30.3147C65.0247 30.3249 64.1838 30.3557 63.3737 30.4069C62.5533 30.4684 61.8047 30.5504 61.1279 30.6529V46.9402V46.9402Z" fill="black"/>
<path d="M91.9842 37.1617C91.9944 36.7517 92.0355 36.3212 92.1175 35.8804C92.1995 35.4499 92.3226 35.0399 92.4764 34.6812C92.6405 34.3122 92.8456 34.0047 93.1019 33.7792C93.3583 33.5537 93.666 33.4307 94.0249 33.4204C94.4556 33.4307 94.8145 33.5947 95.0811 33.9227C95.358 34.2507 95.5528 34.7017 95.6759 35.2552C95.7989 35.8189 95.8604 36.4544 95.8604 37.1617H91.9842V37.1617ZM99.6957 40.2367C99.747 40.0112 99.7777 39.7242 99.8085 39.3654C99.8187 39.0169 99.8392 38.5454 99.8392 37.9714C99.829 35.4807 99.3368 33.5844 98.3831 32.2622C97.4192 30.9399 96.0655 30.2634 94.2915 30.2634C93.0404 30.2634 91.9227 30.6119 90.9485 31.3089C89.964 31.9957 89.1949 33.0002 88.6207 34.3019C88.0464 35.6037 87.7593 37.1617 87.7388 39.0067C87.7388 40.7184 88.0054 42.1637 88.5284 43.3629C89.0616 44.5622 89.841 45.4642 90.8562 46.0997C91.8816 46.7352 93.1327 47.0529 94.6196 47.0529C95.4708 47.0529 96.2911 46.9812 97.0705 46.8479C97.8601 46.7147 98.5472 46.5404 99.1214 46.3149L98.5164 43.1784C98.1267 43.3219 97.6755 43.4449 97.1423 43.5474C96.609 43.6602 96.0348 43.7114 95.4092 43.7114C94.7632 43.7114 94.1787 43.5987 93.6659 43.3732C93.1532 43.1374 92.743 42.7684 92.4354 42.2662C92.1278 41.7537 91.9637 41.0772 91.9432 40.2367H99.6957Z" fill="black"/>
<path d="M100.998 47.0427H105.059L105.233 41.2002C105.243 40.6672 105.254 40.0624 105.274 39.3962C105.295 38.7197 105.305 37.9612 105.326 37.0899C105.336 36.2187 105.356 35.2142 105.367 34.0662H105.438C105.531 34.4967 105.643 35.0092 105.756 35.6037C105.879 36.1879 105.992 36.7927 106.115 37.4384C106.238 38.0739 106.361 38.7094 106.484 39.3142C106.597 39.9189 106.71 40.4622 106.812 40.9439L108.156 46.7864H111.806L113.109 41.0157C113.304 40.1444 113.488 39.2629 113.673 38.3917C113.857 37.5204 114.021 36.7004 114.165 35.9419C114.309 35.1834 114.432 34.5684 114.524 34.0764H114.585C114.616 35.2449 114.637 36.2699 114.657 37.1412C114.678 38.0124 114.698 38.7709 114.719 39.4269C114.729 40.0829 114.75 40.6672 114.77 41.1899L114.975 47.0632H119.169L118.062 30.2634H112.463L111.294 35.6242C111.191 36.0854 111.099 36.5672 110.996 37.0489C110.894 37.5409 110.801 38.0637 110.678 38.6274C110.566 39.1912 110.443 39.8369 110.299 40.5339H110.196C110.043 39.8164 109.899 39.1707 109.766 38.6172C109.643 38.0534 109.509 37.5409 109.407 37.0592C109.284 36.5774 109.181 36.0957 109.068 35.6242L107.828 30.2634H102.229L100.998 47.0427Z" fill="black"/>
<path d="M128.921 37.8074C128.808 37.8279 128.706 37.8382 128.614 37.8382C128.521 37.8484 128.409 37.8484 128.275 37.8484C127.742 37.8382 127.26 37.7357 126.829 37.5102C126.409 37.2949 126.07 37.0079 125.824 36.6184C125.578 36.2494 125.455 35.8087 125.445 35.3167C125.455 34.5684 125.681 34.0047 126.132 33.6152C126.573 33.2359 127.188 33.0412 127.968 33.0412C128.132 33.0412 128.296 33.0514 128.46 33.0719C128.614 33.0822 128.767 33.1129 128.921 33.1437V37.8074V37.8074ZM133.187 30.5504C132.633 30.4479 131.946 30.3659 131.136 30.3147C130.316 30.2634 129.455 30.2429 128.521 30.2429C127.752 30.2429 127.014 30.2839 126.306 30.3762C125.599 30.4582 124.953 30.6017 124.378 30.7759C123.794 30.9502 123.312 31.1757 122.922 31.4319C122.307 31.8522 121.835 32.3544 121.497 32.9387C121.159 33.5229 120.994 34.2302 120.984 35.0502C120.994 35.8497 121.179 36.5159 121.528 37.0797C121.876 37.6332 122.358 38.0842 122.943 38.4224C123.527 38.7607 124.163 39.0067 124.871 39.1502V39.2117C124.419 39.3449 124.02 39.5192 123.691 39.7139C123.353 39.9087 123.086 40.1239 122.861 40.3699C122.502 40.7799 122.194 41.2617 121.938 41.8254C121.692 42.3892 121.476 42.9734 121.302 43.5679C121.138 44.1624 120.984 44.7159 120.841 45.2079C120.738 45.5667 120.615 45.9049 120.471 46.2022C120.328 46.5097 120.164 46.7967 119.99 47.0427H124.625C124.727 46.8582 124.819 46.6634 124.912 46.4584C124.994 46.2534 125.066 46.0484 125.117 45.8127C125.281 45.1464 125.455 44.4802 125.619 43.8037C125.794 43.1374 125.999 42.5429 126.265 42.0099C126.522 41.4769 126.85 41.0874 127.26 40.8414C127.414 40.7594 127.588 40.6774 127.793 40.6057C127.988 40.5339 128.224 40.5032 128.491 40.5032H128.901V47.0427H133.197V30.5504H133.187Z" fill="black"/>
<path d="M79.4222 37.8177C79.535 37.8382 79.6375 37.8484 79.7401 37.8484C79.8324 37.8484 79.9349 37.8587 80.0682 37.8587C80.6117 37.8484 81.0834 37.7459 81.5141 37.5204C81.9346 37.3052 82.273 37.0182 82.5191 36.6287C82.7652 36.2597 82.8985 35.8189 82.8985 35.3269C82.8882 34.5787 82.6626 34.0047 82.2217 33.6254C81.7705 33.2462 81.1552 33.0514 80.3759 33.0514C80.2118 33.0514 80.0477 33.0617 79.8939 33.0822C79.7401 33.0924 79.5862 33.1232 79.4324 33.1539V37.8177H79.4222ZM75.1665 30.5607C75.7203 30.4582 76.4073 30.3762 77.2174 30.3249C78.0275 30.2737 78.8992 30.2429 79.8324 30.2429C80.6015 30.2429 81.3398 30.2942 82.0474 30.3864C82.7549 30.4787 83.401 30.6119 83.9855 30.7862C84.57 30.9604 85.0417 31.1757 85.4314 31.4422C86.0467 31.8624 86.5286 32.3647 86.867 32.9489C87.2054 33.5332 87.3798 34.2404 87.3798 35.0604C87.3695 35.8497 87.1849 37.0489 86.8363 37.6024C85.2878 40.5237 82.3653 40.7082 79.4734 40.3187V47.0529H75.1665V30.5607Z" fill="black"/>
<path d="M112.647 24.1853C111.488 24.1853 110.309 22.4428 110.309 19.1013C110.309 15.401 111.724 14.0173 112.616 14.0173C113.868 14.0173 114.811 16.139 114.811 18.9578C114.811 23.0885 113.406 24.1853 112.647 24.1853ZM112.77 10.6963C108.586 10.6963 105.889 13.9763 105.889 19.05C105.889 24.339 108.361 27.496 112.504 27.496C115.026 27.496 119.272 26.3685 119.272 18.8143C119.272 13.7303 116.841 10.6963 112.77 10.6963Z" fill="black"/>
<path d="M96.3218 10.6963H95.0707H93.5017C89.9741 10.6963 86.4568 13.5355 86.4568 19.501C86.4568 24.339 89.0102 27.3628 93.1326 27.496C94.8758 27.5575 96.8652 26.799 96.8652 26.799L96.1064 23.56C96.1064 23.56 95.4911 23.8675 94.3016 23.9085C91.7277 23.9905 90.8355 21.2743 90.8355 19.2755C90.8355 16.3953 91.861 14.704 94.2093 14.5298C94.7938 14.4785 96.2602 14.4375 96.2602 14.4375H98.5265V27.2193H102.915V14.4375H106.382V10.6963H96.3218V10.6963Z" fill="black"/>
</svg>
