<svg width="32" height="19" viewBox="0 0 32 19" fill="none" xmlns="http://www.w3.org/2000/svg">
<path fill-rule="evenodd" clip-rule="evenodd" d="M8.13413 18.2843L16.9778 13.2578V18.2843L31.2924 9.18966L16.9778 0.0949707V5.12155L8.13413 0.0949707V7.04331H0.976807V11.336H8.13413V18.2843ZM11.6793 6.64288H10.7163V11.5906H11.7453L13.8069 8.36074V11.5906H14.7699V6.64288H13.7443L11.6793 9.93686V6.64288ZM23.5405 6.64288H19.9701V9.46774L19.9736 10.3182C19.9736 10.5387 19.9365 10.6771 19.8624 10.7334C19.7882 10.7896 19.6433 10.8177 19.4278 10.8177L19.1983 10.8144V11.5872C19.5159 11.6097 19.7349 11.621 19.8554 11.621C20.1984 11.621 20.4499 11.5546 20.6098 11.4218C20.772 11.2868 20.874 11.1001 20.9157 10.8616C20.9575 10.6209 20.9783 10.1979 20.9783 9.59261V7.47987H22.5114V11.5906H23.5405V6.64288Z" fill="black"/>
</svg>
