<svg width="204" height="50" viewBox="0 0 204 50" fill="none" xmlns="http://www.w3.org/2000/svg">
<path fill-rule="evenodd" clip-rule="evenodd" d="M0.652326 18.6172H4.09406L18.687 37.6278V18.6172H20.9357V48.2155L2.85504 24.358V47.8389H0.560547L0.652326 18.6172ZM24.7904 18.6172H35.2074L36.6758 22.0052C36.6758 22.0052 34.932 20.2172 31.6739 20.2172H29.1499V30.5225H33.3718C35.5286 30.5225 35.8498 30.2871 36.6758 29.44V33.7692C36.6758 33.7692 35.758 32.3104 33.3718 32.3104H29.1499V45.8626H35.0237C40.7142 45.8626 43.6511 43.4157 43.6511 43.4157L41.5402 47.8389H24.7445L24.7904 18.6172ZM169.481 18.6172H181.045L182.513 22.0052C182.513 22.0052 180.862 20.2172 177.282 20.2172H173.473V30.5225H178.062C179.76 30.5225 180.264 30.3812 180.907 29.7225V33.2045C180.907 33.2045 180.448 32.1694 178.062 32.1694H173.473V45.8626H176.272C181.274 45.8626 183.248 44.3098 183.248 44.3098L180.723 47.8389H169.481V18.6172ZM37.9608 18.6172H42.3662L51.8653 40.0277L53.8385 35.5574L46.588 18.6172H50.764L56.0413 30.0519L61.0891 18.6172H63.246L57.2344 33.1576L60.3091 40.0277L69.5329 18.6172H72.0569L59.3913 48.0742L54.9859 38.5218L50.7181 48.1214L37.9608 18.6172ZM111.752 17.5819C121.572 17.5819 127.538 24.6874 127.538 32.5929C127.538 42.7569 122.168 49.2036 111.981 49.2036C101.793 49.2036 95.736 41.3453 95.736 33.4869C95.736 24.6404 102.161 17.5819 111.752 17.5819ZM99.9579 32.8282C99.9579 39.6983 103.721 47.1802 112.256 47.1802C120.149 47.1802 123.27 40.5453 123.27 33.0163C123.27 26.9931 119.277 19.3231 111.522 19.3231C106.153 19.3231 99.9579 23.6992 99.9579 32.8282ZM130.888 18.6172H137.588C141.121 18.6172 144.058 20.6876 144.058 24.5933C144.058 29.1578 140.8 30.3341 138.551 31.0871C142.589 31.7929 144.104 33.7692 144.104 39.369C144.104 44.9685 145.48 46.992 146.72 46.992C147.683 46.992 148.418 46.3332 148.693 45.9097L149.244 46.2861C149.06 46.5685 147.959 48.3567 145.343 48.3567C142.727 48.3567 140.754 45.9097 140.754 40.0747C140.754 31.6988 138.551 31.5106 136.762 31.5106V30.8988C136.807 30.8988 140.524 30.0519 140.524 25.3462C140.524 20.9229 137.909 20.2172 136.853 20.2172H134.926V47.8861H130.796L130.888 18.6172ZM185.083 18.6172H191.783C195.316 18.6172 198.253 20.6876 198.253 24.5933C198.253 29.1578 194.995 30.3341 192.748 31.0871C196.785 31.7929 198.3 33.7692 198.3 39.369C198.3 44.9685 199.677 46.992 200.916 46.992C201.879 46.992 202.614 46.3332 202.888 45.9097L203.439 46.2861C203.255 46.5685 202.155 48.3567 199.539 48.3567C196.922 48.3567 194.95 45.9097 194.95 40.0747C194.95 31.6988 192.748 31.5106 190.958 31.5106V30.8988C191.003 30.8988 194.72 30.0519 194.72 25.3462C194.72 20.9229 192.105 20.2172 191.05 20.2172H189.122V47.8861H184.991L185.083 18.6172ZM162.689 39.2749C162.689 44.8745 164.065 46.8979 165.304 46.8979C166.269 46.8979 167.002 46.2391 167.279 45.8157L167.829 46.192C167.645 46.4744 166.543 48.2624 163.928 48.2624C161.312 48.2624 159.34 45.8157 159.34 39.9806V38.8043C159.34 35.3221 159.156 32.6398 158.605 30.8988C158.146 29.5343 156.495 28.499 155.805 28.499H154.934V47.792H150.804L150.85 18.5231H154.934V27.1343L162.414 18.5231H165.075L157.183 27.6049C161.22 28.3108 162.644 31.4165 162.644 38.0984V39.2749H162.689ZM98.2599 0.453613H100.417V5.72388H105.373V0.453613H107.53V12.6882H105.373V6.665H100.417V12.6882H98.2599V0.453613ZM111.614 0.453613H117.121L117.809 2.24175C117.809 2.24175 116.708 1.39473 115.79 1.39473H113.771V5.67683H115.56C116.57 5.67683 116.845 5.20627 116.845 5.20627V7.18262C116.845 7.18262 116.524 6.61795 115.56 6.61795H113.771V11.7941H116.295C118.222 11.7941 119.002 10.7589 119.002 10.7589L118.038 12.7352H111.568V0.453613H111.614ZM91.1929 1.39473H91.147V12.6882H88.8983V1.39473H87.7511C85.9614 1.39473 84.5389 2.7123 84.5389 2.7123L85.1813 0.500673H94.91L95.5524 2.7123C95.5524 2.7123 94.1298 1.39473 92.3401 1.39473H91.1929ZM89.862 47.8389H85.5026V32.7341L77.5637 18.6172H80.1335L87.6594 32.0282L95.2311 18.6172H97.801L89.862 32.7341V47.8389Z" fill="black" stroke="black" stroke-width="0.1"/>
</svg>
