<svg width="201" height="47" viewBox="0 0 201 47" fill="none" xmlns="http://www.w3.org/2000/svg">
<g clip-path="url(#clip0_630_546)">
<path d="M45.1179 46.578H39.5819V37.8645H11.5425V46.578H6.00725L4.46948 31.9536H11.5432C12.2093 29.4714 12.8161 26.9738 13.3629 24.463C13.9234 21.8994 14.436 19.3256 14.9007 16.7431C15.3536 14.2292 15.7552 11.7063 16.1053 9.17615C16.4463 6.69699 16.7375 4.33531 16.9767 2.09324H39.4794V31.9529H46.6557L45.1179 46.578ZM23.1271 8.25894C22.9449 10.1499 22.7141 12.0359 22.4351 13.9151C22.139 15.9168 21.8058 17.9129 21.4355 19.9024C21.0555 21.9417 20.6283 23.972 20.154 25.9917C19.6864 27.9857 19.1908 29.9732 18.6675 31.9536H32.3537V8.25894H23.1271ZM62.2427 1.17603C64.8391 1.17603 67.1806 1.64312 69.2652 2.57732C71.349 3.51223 73.126 4.81161 74.5961 6.47547C76.0648 8.14075 77.1847 10.1111 77.9536 12.3864C78.7225 14.6624 79.1069 17.143 79.1069 19.826C79.1069 22.5097 78.7225 25.0072 77.9536 27.3165C77.1847 29.6259 76.0655 31.6223 74.5961 33.3032C73.1267 34.9855 71.349 36.3018 69.2652 37.2523C67.1799 38.2035 64.8391 38.6791 62.2427 38.6791C59.6456 38.6791 57.3133 38.2035 55.2458 37.2523C53.1777 36.3018 51.427 34.9855 49.9918 33.3032C48.5565 31.6223 47.4623 29.6266 46.7112 27.3165C45.9587 25.0065 45.5835 22.5097 45.5835 19.826C45.5835 17.1423 45.9587 14.6624 46.7112 12.3864C47.4623 10.1111 48.5565 8.14004 49.9918 6.47547C51.427 4.81161 53.1777 3.51223 55.2458 2.57732C57.3133 1.64312 59.6456 1.17603 62.2427 1.17603ZM62.2427 7.39268C60.7049 7.39268 59.3544 7.70691 58.1932 8.33537C57.0313 8.96454 56.0574 9.83079 55.2715 10.9341C54.4855 12.0382 53.8953 13.3468 53.503 14.8578C53.11 16.3695 52.9135 18.0093 52.9135 19.775C52.9135 21.5075 53.11 23.1466 53.503 24.6923C53.8953 26.2394 54.4848 27.5897 55.2715 28.744C56.0574 29.899 57.0313 30.8162 58.1932 31.4957C59.3544 32.1758 60.7049 32.5148 62.2427 32.5148C63.7805 32.5148 65.1388 32.1758 66.3178 31.4957C67.4967 30.8162 68.4785 29.899 69.2652 28.744C70.0511 27.5897 70.6406 26.2394 71.0336 24.6923C71.4259 23.1466 71.6231 21.5075 71.6231 19.775C71.6231 18.0093 71.4259 16.3695 71.0336 14.8578C70.6406 13.3468 70.0511 12.0382 69.2652 10.9341C68.5014 9.84999 67.4917 8.95974 66.3178 8.33537C65.1388 7.70691 63.7805 7.39268 62.2427 7.39268Z" fill="black"/>
<path d="M102.685 2.09326L83.2581 37.8645H75.2104L94.6889 2.09326H102.685ZM118.237 2.09326L98.8102 37.8645H90.7619L110.24 2.09326H118.237ZM133.789 2.09326L114.362 37.8645H106.314L125.792 2.09326H133.789Z" fill="black"/>
<path d="M165.584 46.578H160.048V37.8645H132.009V46.578H126.473L124.936 31.9536H132.01C132.676 29.4714 133.283 26.9738 133.829 24.463C134.39 21.8995 134.903 19.3257 135.367 16.7432C135.82 14.2292 136.222 11.7064 136.572 9.17617C136.913 6.69701 137.204 4.33533 137.443 2.09326H159.946V31.9529H167.122L165.584 46.578ZM143.594 8.25896C143.411 10.1499 143.18 12.0359 142.901 13.9151C142.605 15.9168 142.272 17.913 141.902 19.9025C141.522 21.9417 141.094 23.972 140.62 25.9917C140.153 27.9859 139.657 29.9734 139.133 31.9536H152.82V8.25896H143.594ZM175.297 16.0553H186.164C189.992 16.0553 192.887 17.0064 194.853 18.9088C196.818 20.8119 197.801 23.5465 197.801 27.1128C197.801 30.7144 196.801 33.4065 194.802 35.1893C192.802 36.9735 189.923 37.8645 186.164 37.8645H168.274V2.09326H175.297V16.0553H175.297ZM184.882 32.2084C186.522 32.2084 187.864 31.7752 188.906 30.909C189.948 30.0427 190.469 28.761 190.469 27.0611C190.469 25.3293 189.965 24.0129 188.957 23.112C187.948 22.2125 186.59 21.7624 184.881 21.7624H175.296V32.2084H184.882Z" fill="black"/>
</g>
<defs>
<clipPath id="clip0_630_546">
<rect width="201" height="46" fill="white" transform="translate(0 0.828613)"/>
</clipPath>
</defs>
</svg>
